<svg width="32" height="32" viewBox="0 0 32 32" fill="none" xmlns="http://www.w3.org/2000/svg">
  <!-- 渐变定义 -->
  <defs>
    <linearGradient id="gradient" x1="0%" y1="0%" x2="100%" y2="100%">
      <stop offset="0%" style="stop-color:#4F46E5;stop-opacity:1" />
      <stop offset="100%" style="stop-color:#7C3AED;stop-opacity:1" />
    </linearGradient>
  </defs>
  
  <!-- 背景圆形 -->
  <circle cx="16" cy="16" r="15" fill="url(#gradient)"/>
  
  <!-- 中心齿轮（工厂概念） -->
  <g transform="translate(16, 16)">
    <!-- 齿轮外圈 -->
    <path d="M -6 -2 L -4 -4 L -2 -3 L -2 -5 L 2 -5 L 2 -3 L 4 -4 L 6 -2 L 5 0 L 6 2 L 4 4 L 2 3 L 2 5 L -2 5 L -2 3 L -4 4 L -6 2 L -5 0 Z" 
          fill="white" 
          opacity="0.95"/>
    <!-- 齿轮中心圆 -->
    <circle cx="0" cy="0" r="2.5" fill="url(#gradient)"/>
  </g>
  
  <!-- 神经网络节点（突触概念） -->
  <circle cx="8" cy="8" r="2" fill="white" opacity="0.9"/>
  <circle cx="24" cy="8" r="2" fill="white" opacity="0.9"/>
  <circle cx="8" cy="24" r="2" fill="white" opacity="0.9"/>
  <circle cx="24" cy="24" r="2" fill="white" opacity="0.9"/>
  
  <!-- 连接线（神经网络连接到中心） -->
  <line x1="8" y1="8" x2="13" y2="13" stroke="white" stroke-width="1.2" opacity="0.5" stroke-linecap="round"/>
  <line x1="24" y1="8" x2="19" y2="13" stroke="white" stroke-width="1.2" opacity="0.5" stroke-linecap="round"/>
  <line x1="8" y1="24" x2="13" y2="19" stroke="white" stroke-width="1.2" opacity="0.5" stroke-linecap="round"/>
  <line x1="24" y1="24" x2="19" y2="19" stroke="white" stroke-width="1.2" opacity="0.5" stroke-linecap="round"/>
</svg>

